<svg width="18" height="20" viewBox="0 0 18 32" fill="none" xmlns="http://www.w3.org/2000/svg">
    <path fill="#DEAE48" d="M1.19054 0C1.34683 -7.05719e-05 1.50162 0.0306492 1.64604 0.0904064C1.79047 0.150164 1.9217 0.237789 2.03226 0.348272L16.7002 15.017C16.9233 15.2401 17.0486 15.5428 17.0486 15.8583C17.0486 16.1738 16.9233 16.4765 16.7002 16.6996L2.03226 31.3683C1.92177 31.4789 1.7906 31.5666 1.64623 31.6264C1.50185 31.6862 1.3471 31.7171 1.19082 31.7171C1.03453 31.7171 0.879768 31.6864 0.735365 31.6266C0.590961 31.5668 0.459743 31.4792 0.349207 31.3687C0.238668 31.2582 0.150978 31.1271 0.091135 30.9827C0.0312939 30.8383 0.000473022 30.6836 0.000436783 30.5273C0.000398636 30.371 0.031147 30.2162 0.0909214 30.0718C0.150694 29.9274 0.238327 29.7962 0.348812 29.6857L14.1758 15.8587L0.348812 2.03172C0.182278 1.86529 0.0688553 1.65321 0.0228939 1.4223C-0.0230675 1.19139 0.000497818 0.952042 0.0906105 0.734531C0.180723 0.517021 0.333334 0.331129 0.529127 0.200378C0.72492 0.0696278 0.955097 -0.000106812 1.19054 0Z" />
</svg>
